<svg width="177" height="24" viewBox="0 0 177 24" fill="none" xmlns="http://www.w3.org/2000/svg">
<path d="M103.258 19.7156C102.485 20.6575 101.393 21.3886 99.9816 21.9076C98.5705 22.4273 97.0065 22.6872 95.2901 22.6865C93.4877 22.6865 91.9075 22.2859 90.5485 21.4842C89.19 20.683 88.1413 19.5193 87.4024 17.9949C86.6634 16.4699 86.2849 14.6778 86.2656 12.6187L86.2663 11.1761C86.2663 9.05872 86.6171 7.22541 87.3182 5.67615C88.0192 4.12756 89.03 2.94287 90.3506 2.1221C91.6717 1.30133 93.2184 0.890948 94.9926 0.891602C97.4621 0.891602 99.393 1.4918 100.785 2.69154C102.177 3.89127 103.002 5.63688 103.259 7.92902H99.082C98.8918 6.71488 98.4696 5.82604 97.8168 5.2625C97.1639 4.69895 96.2649 4.41751 95.1205 4.41686C93.6618 4.41686 92.5508 4.97516 91.788 6.09243C91.0246 7.20904 90.6384 8.87022 90.6288 11.0746L90.6282 12.4295C90.6282 14.6536 91.0426 16.3344 91.8722 17.4706C92.7018 18.6069 93.9176 19.1757 95.5195 19.1757C97.1311 19.1757 98.2801 18.8261 98.9664 18.1271L98.967 14.4703L95.062 14.4697L95.0626 11.2501L103.258 11.2507L103.258 19.7156Z" fill="#009EDB"/>
<path d="M132.317 14.4679L137.523 14.4685L134.906 6.52785L132.317 14.4679ZM138.682 18.0088L131.157 18.0082L129.727 22.3784L125.164 22.3777L132.919 1.16602L136.896 1.16667L144.688 22.3804L140.125 22.3797L138.682 18.0088Z" fill="#009EDB"/>
<path d="M150.283 18.8682L159.395 18.8695V22.3804L145.992 22.3791L145.994 1.16602L150.285 1.16667L150.283 18.8682Z" fill="#009EDB"/>
<path d="M110.216 8.92379C110.481 8.46824 110.803 8.04966 111.171 7.67892L108.073 4.22744C107.286 4.99116 106.613 5.87476 106.084 6.84905L110.216 8.92379Z" fill="#56C02B"/>
<path d="M117.829 6.47619C118.299 6.69353 118.736 6.97117 119.13 7.30075L122.261 3.82847C121.443 3.11228 120.514 2.52196 119.504 2.08757L117.829 6.47619Z" fill="#DDA83A"/>
<path d="M124.991 7.54004L120.851 9.65006C121.046 10.1168 121.185 10.6126 121.259 11.1303L125.857 10.669C125.725 9.56479 125.429 8.51277 124.991 7.54004Z" fill="#C5192D"/>
<path d="M120.538 9.01624L124.678 6.90673C124.171 5.94352 123.522 5.0695 122.759 4.31263L119.627 7.78195C119.98 8.15069 120.287 8.56542 120.538 9.01624Z" fill="#4C9F38"/>
<path d="M109.439 12.0275C109.439 11.9326 109.442 11.8383 109.446 11.7441L104.851 11.3252C104.836 11.5569 104.828 11.7912 104.828 12.0275C104.828 12.9248 104.937 13.7973 105.14 14.6305L109.578 13.3339C109.488 12.9131 109.439 12.4758 109.439 12.0275Z" fill="#3F7E44"/>
<path d="M120.008 15.8598C119.679 16.2655 119.299 16.6276 118.88 16.9363L121.298 20.92C122.203 20.2964 123.01 19.5358 123.689 18.668L120.008 15.8598Z" fill="#FCC30B"/>
<path d="M121.34 12.038C121.34 12.4811 121.293 12.9131 121.203 13.3294L125.641 14.628C125.843 13.798 125.951 12.9301 125.951 12.038C125.951 11.8161 125.943 11.5962 125.93 11.377L121.336 11.8194C121.338 11.8921 121.34 11.9647 121.34 12.038Z" fill="#FF3A21"/>
<path d="M110.837 15.9567L107.159 18.8062C107.841 19.6601 108.647 20.4045 109.552 21.012L111.987 17.0131C111.56 16.7131 111.173 16.3574 110.837 15.9567Z" fill="#FD9D24"/>
<path d="M109.498 11.0356C109.579 10.5072 109.73 10.0018 109.937 9.52896L105.809 7.43221C105.353 8.42077 105.041 9.49104 104.899 10.6142L109.498 11.0356Z" fill="#0A97D9"/>
<path d="M120.758 21.2881L118.346 17.3018C117.905 17.5567 117.429 17.7567 116.928 17.8921L117.768 22.5108C118.833 22.2582 119.84 21.8403 120.758 21.2881Z" fill="#A21942"/>
<path d="M121.001 13.9413C120.84 14.4222 120.621 14.8764 120.353 15.2959L124.032 18.1167C124.633 17.2391 125.109 16.2668 125.435 15.2278L121.001 13.9413Z" fill="#26BDE2"/>
<path d="M116.252 18.0098C115.972 18.051 115.685 18.0739 115.392 18.0739C115.158 18.0739 114.926 18.0589 114.698 18.032L113.844 22.6542C114.35 22.7295 114.867 22.7694 115.392 22.7694C115.976 22.7694 116.548 22.7204 117.106 22.6274L116.252 18.0098Z" fill="#FD6925"/>
<path d="M115.727 5.95341C116.239 5.98758 116.734 6.08841 117.203 6.24645L118.852 1.86293C117.864 1.50681 116.811 1.29401 115.717 1.2525L115.727 5.95341Z" fill="#E5243B"/>
<path d="M114.031 17.8924C113.514 17.7707 113.024 17.5803 112.568 17.3311L110.136 21.3317C111.069 21.8747 112.09 22.2759 113.172 22.5094L114.031 17.8924Z" fill="#DD1367"/>
<path d="M113.583 6.18921C114.063 6.03789 114.568 5.94583 115.092 5.92327L115.072 1.23158C113.96 1.25639 112.892 1.45772 111.891 1.80578L113.583 6.18921Z" fill="#19486A"/>
<path d="M110.444 15.421C110.151 14.9804 109.913 14.4982 109.741 13.9863L105.305 15.2802C105.641 16.3567 106.139 17.3604 106.771 18.2618L110.444 15.421Z" fill="#BF8B2E"/>
<path d="M111.699 7.24172C112.089 6.92746 112.52 6.66249 112.98 6.45285L111.316 2.07804C110.321 2.50393 109.404 3.07967 108.59 3.77706L111.699 7.24172Z" fill="#00689D"/>
<path d="M5.05219 8.05014C5.05219 7.7327 4.94166 7.48529 4.72126 7.30792C4.50021 7.13054 4.11273 6.94662 3.55753 6.75681C3.00298 6.56765 2.54931 6.38373 2.19717 6.20636C1.05144 5.633 0.478254 4.84495 0.478254 3.84288C0.478254 3.34348 0.620908 2.90364 0.906217 2.52206C1.19153 2.14047 1.59571 1.84332 2.11814 1.6306C2.64056 1.41853 3.22788 1.3125 3.88011 1.3125C4.51563 1.3125 5.0856 1.4277 5.59003 1.65874C6.09382 1.88979 6.4858 2.21836 6.76533 2.64576C7.04485 3.07251 7.18429 3.56013 7.18429 4.10862H5.05797C5.05797 3.74208 4.94809 3.45737 4.72704 3.25512C4.50663 3.05287 4.20783 2.95208 3.83127 2.95208C3.45022 2.95208 3.15013 3.03716 2.92908 3.20865C2.70867 3.37948 2.59815 3.59743 2.59815 3.86121C2.59815 4.09225 2.7196 4.3017 2.9625 4.48955C3.20539 4.67739 3.63271 4.87113 4.24446 5.07076C4.85556 5.27105 5.35806 5.48638 5.75068 5.71743C6.70621 6.27835 7.18429 7.052 7.18429 8.03771C7.18429 8.82575 6.89256 9.44427 6.30973 9.89393C5.72626 10.3436 4.92688 10.5687 3.91031 10.5687C3.19318 10.5687 2.54417 10.4372 1.96327 10.1754C1.38237 9.91357 0.944772 9.55489 0.65111 9.09869C0.357447 8.64314 0.210938 8.11821 0.210938 7.52391H2.34883C2.34883 8.00694 2.47156 8.36235 2.71638 8.59143C2.96185 8.82052 3.35961 8.93506 3.91031 8.93506C4.26245 8.93506 4.54069 8.85782 4.74568 8.7027C4.95002 8.54823 5.05219 8.33093 5.05219 8.05014Z" fill="#009EDB"/>
<path d="M15.3113 1.45215V7.34873C15.3113 8.017 15.1719 8.5956 14.8924 9.08452C14.6128 9.5728 14.2119 9.94522 13.6894 10.2011C13.167 10.4564 12.5495 10.5847 11.8369 10.5847C10.7592 10.5847 9.91102 10.3 9.29157 9.73054C8.67211 9.16176 8.35596 8.38157 8.34375 7.39193V1.45215H10.4881V7.43513C10.5125 8.42084 10.9623 8.91369 11.8369 8.91369C12.2783 8.91369 12.6125 8.78999 12.8386 8.54258C13.0655 8.29517 13.1792 7.89329 13.1792 7.3363V1.45215H15.3113Z" fill="#009EDB"/>
<path d="M21.3413 8.05014C21.3413 7.7327 21.2307 7.48529 21.0103 7.30792C20.7893 7.13054 20.4018 6.94662 19.8466 6.75681C19.292 6.56765 18.8384 6.38373 18.4862 6.20636C17.3405 5.633 16.7673 4.84495 16.7673 3.84288C16.7673 3.34348 16.91 2.90364 17.1953 2.52206C17.4806 2.14047 17.8848 1.84332 18.4072 1.6306C18.9296 1.41853 19.5169 1.3125 20.1692 1.3125C20.8047 1.3125 21.3747 1.4277 21.8791 1.65874C22.3829 1.88979 22.7749 2.21836 23.0544 2.64576C23.3339 3.07251 23.4734 3.56013 23.4734 4.10862H21.347C21.347 3.74208 21.2372 3.45737 21.0161 3.25512C20.7957 3.05287 20.4969 2.95208 20.1203 2.95208C19.7393 2.95208 19.4392 3.03716 19.2181 3.20865C18.9977 3.37948 18.8872 3.59743 18.8872 3.86121C18.8872 4.09225 19.0087 4.3017 19.2516 4.48955C19.4945 4.67739 19.9218 4.87113 20.5335 5.07076C21.1446 5.27105 21.6471 5.48638 22.0397 5.71743C22.9953 6.27835 23.4734 7.052 23.4734 8.03771C23.4734 8.82575 23.1816 9.44427 22.5988 9.89393C22.0153 10.3436 21.2159 10.5687 20.1994 10.5687C19.4822 10.5687 18.8332 10.4372 18.2523 10.1754C17.6714 9.91357 17.2338 9.55489 16.9402 9.09869C16.6465 8.64314 16.5 8.11821 16.5 7.52391H18.6379C18.6379 8.00694 18.7606 8.36235 19.0054 8.59143C19.2509 8.82052 19.6487 8.93506 20.1994 8.93506C20.5515 8.93506 20.8298 8.85782 21.0347 8.7027C21.2391 8.54823 21.3413 8.33093 21.3413 8.05014Z" fill="#009EDB"/>
<path d="M31.6736 3.12903H29.019V10.461H26.8869V3.12903H24.2812V1.45215H31.6736V3.12903Z" fill="#009EDB"/>
<path d="M34.525 7.10132H36.4264L35.4728 3.97664L34.525 7.10132ZM36.9366 8.77821H34.0147L33.5045 10.461H31.2266L34.4703 1.45215H36.4752L39.7428 10.461H37.4526L36.9366 8.77821Z" fill="#009EDB"/>
<path d="M40.6705 1.45215H42.7969V10.461H40.6705V1.45215Z" fill="#009EDB"/>
<path d="M51.8006 10.461H49.6807L46.5462 4.85566V10.461H44.4141V1.45215H46.5462L49.6743 7.05813V1.45215H51.8006V10.461Z" fill="#009EDB"/>
<path d="M56.0171 7.10132H57.9186L56.965 3.97664L56.0171 7.10132ZM58.4288 8.77821H55.5069L54.9967 10.461H52.7188L55.9625 1.45215H57.9674L61.235 10.461H58.9448L58.4288 8.77821Z" fill="#009EDB"/>
<path d="M64.0696 6.63072V8.78999H65.4666C65.8515 8.78999 66.1471 8.70032 66.3534 8.52098C66.5603 8.34164 66.6631 8.089 66.6631 7.76304C66.6631 7.01231 66.2968 6.63465 65.5643 6.63072H64.0696ZM64.0696 5.20779H65.1813C65.6472 5.20387 65.9787 5.11681 66.1773 4.94664C66.3758 4.77777 66.4755 4.52709 66.4755 4.1959C66.4755 3.81563 66.3675 3.54138 66.1535 3.37382C65.9382 3.20627 65.5925 3.12249 65.1145 3.12249H64.0696V5.20779ZM61.9375 10.4603V1.45215H65.1145C66.2525 1.45215 67.118 1.66421 67.7111 2.089C68.3043 2.51444 68.6011 3.131 68.6011 3.93933C68.6011 4.40535 68.4957 4.8033 68.285 5.13318C68.0749 5.46371 67.7651 5.70654 67.3558 5.86362C67.8178 5.98733 68.1719 6.21837 68.4186 6.55676C68.666 6.89449 68.7894 7.3075 68.7894 7.79381C68.7894 8.67676 68.515 9.33979 67.9663 9.7829C67.4175 10.2267 66.6046 10.4525 65.5276 10.4603H61.9375Z" fill="#009EDB"/>
<path d="M72.2337 8.78999H75.9453V10.4603H70.1016V1.45215H72.2337V8.78999Z" fill="#009EDB"/>
<path d="M82.4695 6.63727H79.1165V8.79064H83.0767V10.461H76.9844V1.45215H83.089V3.12903H79.1165V5.02845H82.4695V6.63727Z" fill="#009EDB"/>
<path d="M2.04214 15.5623V20.985H2.7522C3.3376 20.985 3.78741 20.7729 4.10163 20.3481C4.41586 19.9233 4.57329 19.2917 4.57329 18.4546V18.0808C4.57329 17.2476 4.41586 16.6193 4.10163 16.1965C3.78741 15.7737 3.32989 15.5623 2.72843 15.5623H2.04214ZM0 22.5853V13.9561H2.72843C3.47704 13.9561 4.15047 14.1288 4.74744 14.4751C5.34504 14.8207 5.81156 15.3083 6.14699 15.9386C6.48242 16.5689 6.65206 17.2751 6.65592 18.0573V18.4546C6.65592 19.2446 6.49206 19.9528 6.16434 20.5792C5.83662 21.2055 5.37524 21.6951 4.77956 22.0486C4.18389 22.4027 3.52009 22.5813 2.7869 22.5853H0Z" fill="#009EDB"/>
<path d="M13.0507 18.9226H9.83902V20.985H13.6322V22.5853H7.79688V13.9561H13.6444V15.5623H9.83902V17.3818H13.0507V18.9226Z" fill="#009EDB"/>
<path d="M18.2808 20.2382L19.9682 13.9561H22.2488L19.3976 22.5853H17.164L14.3359 13.9561H16.5991L18.2808 20.2382Z" fill="#009EDB"/>
<path d="M28.0507 18.9226H24.839V20.985H28.6322V22.5853H22.7969V13.9561H28.6444V15.5623H24.839V17.3818H28.0507V18.9226Z" fill="#009EDB"/>
<path d="M31.5578 20.9869H35.1126V22.5872H29.5156V13.958H31.5578V20.9869Z" fill="#009EDB"/>
<path d="M40.4135 18.1202C40.4135 17.2628 40.2728 16.6122 39.992 16.1678C39.7105 15.7227 39.3083 15.5009 38.7846 15.5009C37.7603 15.5009 37.2192 16.283 37.1614 17.8473L37.155 18.4815C37.155 19.3272 37.2931 19.9771 37.5682 20.432C37.8438 20.8863 38.2531 21.1134 38.7961 21.1134C39.3121 21.1134 39.7093 20.8902 39.9888 20.4431C40.2683 19.9968 40.4097 19.3553 40.4135 18.5175V18.1202ZM42.4904 18.4815C42.4904 19.3233 42.3374 20.0681 42.0309 20.7161C41.7244 21.3641 41.2894 21.8628 40.7252 22.2123C40.1603 22.5625 39.5178 22.7372 38.7961 22.7372C38.0745 22.7372 37.4345 22.5684 36.8761 22.23C36.3177 21.8923 35.882 21.4092 35.5697 20.7815C35.2574 20.1532 35.0935 19.4319 35.0781 18.6183V18.132C35.0781 17.287 35.2304 16.5409 35.535 15.8949C35.8396 15.2489 36.2759 14.7501 36.844 14.3986C37.412 14.0465 38.0591 13.8711 38.7846 13.8711C39.5023 13.8711 40.1417 14.0452 40.7046 14.3927C41.2669 14.7403 41.7045 15.2351 42.0168 15.8772C42.3284 16.5193 42.4865 17.255 42.4904 18.0849V18.4815Z" fill="#009EDB"/>
<path d="M45.6515 18.0514H46.99C47.3852 18.0514 47.6872 17.9506 47.8948 17.749C48.1017 17.5474 48.2058 17.2634 48.2058 16.8955C48.2058 16.493 48.0991 16.171 47.8858 15.9294C47.6725 15.6886 47.3814 15.5662 47.0132 15.5623H45.6515V18.0514ZM45.6515 19.6576V22.5853H43.6094V13.9561H46.99C47.6378 13.9561 48.2103 14.0778 48.7089 14.3206C49.2076 14.5635 49.5931 14.9097 49.8669 15.358C50.1406 15.8064 50.2775 16.315 50.2775 16.8837C50.2775 17.7254 49.9813 18.3983 49.3901 18.9016C48.7983 19.4056 47.9867 19.6576 46.9547 19.6576H45.6515Z" fill="#009EDB"/>
<path d="M53.9165 13.9561L55.8077 19.9593L57.6924 13.9561H60.381V22.5853H58.3324V20.57L58.5303 16.4452L56.4824 22.5853H55.1323L53.0786 16.4393L53.2765 20.57V22.5853H51.2344V13.9561H53.9165Z" fill="#009EDB"/>
<path d="M66.7069 18.9226H63.4953V20.985H67.2885V22.5853H61.4531V13.9561H67.3007V15.5623H63.4953V17.3818H66.7069V18.9226Z" fill="#009EDB"/>
<path d="M75.138 22.5853H73.1075L70.1053 17.2156V22.5853H68.0625V13.9561H70.1053L73.1017 19.3257V13.9561H75.138V22.5853Z" fill="#009EDB"/>
<path d="M83.0188 15.5642H80.4761V22.5872H78.434V15.5642H75.9375V13.958H83.0188V15.5642Z" fill="#009EDB"/>
<path d="M172.007 16.8461C172.007 16.0208 171.721 15.3872 171.149 14.9447C170.577 14.5029 169.547 14.0363 168.06 13.546C166.572 13.0551 165.394 12.5715 164.527 12.0956C162.162 10.7938 160.98 9.04096 160.98 6.83588C160.98 5.68981 161.298 4.66745 161.932 3.76945C162.566 2.87079 163.477 2.16914 164.664 1.66385C165.851 1.15922 167.184 0.907227 168.662 0.907227C170.15 0.907227 171.475 1.18213 172.638 1.73061C173.801 2.27976 174.705 3.05471 175.348 4.05482C175.992 5.05558 176.314 6.19183 176.314 7.46422L172.023 7.46357C172.023 6.49226 171.723 5.73694 171.122 5.19827C170.521 4.65894 169.677 4.38928 168.59 4.38928C167.541 4.38928 166.726 4.61444 166.144 5.06606C165.562 5.51768 165.272 6.11264 165.272 6.85094C165.272 7.5408 165.612 8.11874 166.294 8.58476C166.976 9.05078 167.979 9.488 169.305 9.89642C171.746 10.6445 173.524 11.572 174.64 12.6795C175.755 13.7869 176.313 15.1666 176.313 16.8173C176.312 18.6533 175.63 20.0932 174.267 21.1372C172.903 22.1811 171.067 22.7028 168.76 22.7021C167.158 22.7021 165.699 22.4037 164.383 21.8061C163.067 21.2085 162.063 20.3904 161.372 19.351C160.681 18.3116 160.335 17.1066 160.336 15.7374L164.641 15.738C164.641 18.0786 166.014 19.2495 168.76 19.2495C169.78 19.2495 170.576 19.0388 171.149 18.616C171.721 18.1938 172.007 17.6041 172.007 16.8461Z" fill="#009EDB"/>
</svg>
