<svg width="577" height="86" viewBox="0 0 577 86" fill="none" xmlns="http://www.w3.org/2000/svg">
<path d="M522.48 56.4502C522.48 39.3002 533.651 27.4502 549.701 27.4502C566.08 27.4502 576.49 38.4002 576.49 55.4502V59.5402L535.31 59.6502C536.31 69.2802 541.4 74.1502 550.37 74.1502C557.78 74.1502 562.651 71.2702 564.201 66.0702H576.711C574.381 78.0702 564.421 85.2202 550.151 85.2202C533.881 85.2302 522.48 73.3902 522.48 56.4502ZM535.651 51.0002H563.091C563.091 43.4802 557.89 38.5002 549.81 38.5002C541.73 38.5002 537.001 42.8402 535.651 51.0002Z" fill="white"/>
<path d="M409 70.7301H388.29L408.63 42.8501C410.76 37.1844 414.393 32.2061 419.14 28.4501L428.58 15.5001V2.89014H371.91V16.0001H411L371 70.6201V83.7901H418.56C414.343 80.2938 411.058 75.8067 409 70.7301Z" fill="white"/>
<path d="M515.75 56.45C515.711 50.8763 516.857 45.3579 519.11 40.26C516.4 32.12 509.9 27.46 499.76 27.46C492.34 27.46 485.7 30.67 482.27 36.2L481.16 29.12H468.66V31.68C474.876 38.3702 478.256 47.2095 478.09 56.34C478.253 65.4699 474.873 74.308 468.66 81V83.78H482.16V54.35C482.16 45.5 487.25 39.74 495.55 39.74C502.55 39.74 507.06 44.17 507.06 53.36V83.79H520.56V75.29C517.339 69.5379 515.68 63.0423 515.75 56.45Z" fill="white"/>
<path d="M29.89 0C46.27 0 56.67 9.08 57.12 23.69H43C42.67 16.69 37.69 12.62 29.72 12.62C20.97 12.62 15.33 16.82 15.33 23.62C15.33 29.37 18.43 32.62 25.18 34.13L37.91 36.9C51.74 39.9 58.49 46.97 58.49 59.04C58.49 74.04 46.76 83.83 28.94 83.83C11.62 83.79 0.33 74.6 0 60.1H14.17C14.28 66.97 19.82 71.1 28.89 71.1C38.3 71.1 44.28 67.01 44.28 60.26C44.28 54.83 41.51 51.62 34.87 50.18L22 47.26C8.3 44.28 1.11 36.42 1.11 24C1.11 9.85 12.84 0 29.89 0Z" fill="white"/>
<path d="M141.35 65.75C141.46 70.51 145 73.5 151.2 73.5C157.4 73.5 160.94 71 160.94 67C160.94 64.23 159.5 62.24 154.63 61.13L144.78 58.81C134.93 56.59 130.17 51.94 130.17 43.2C130.17 32.46 139.25 26.04 151.87 26.04C164.15 26.04 172.46 33.13 172.56 43.75H159.72C159.62 39.1 156.52 36.11 151.31 36.11C146.1 36.11 142.9 38.55 142.9 42.65C142.9 45.75 145.34 47.74 149.98 48.84L159.84 51.17C169.02 53.27 173.67 57.48 173.67 65.89C173.67 76.96 164.26 83.82 150.76 83.82C137.26 83.82 128.51 76.51 128.51 65.82L141.35 65.75Z" fill="white"/>
<path d="M189.059 82.3499V38.9999H178.539V27.6699H189.059V10.6699H202.559V27.6699H213.189V38.9999H202.559V82.3499H189.059Z" fill="white"/>
<path d="M218.83 66.74C218.83 56.67 226.13 50.36 239.09 49.37L255.47 48.15V46.93C255.47 39.52 251.04 36.53 244.17 36.53C236.17 36.53 231.78 39.85 231.78 45.6H220.27C220.27 33.76 230 26 244.84 26C259.68 26 268.64 34 268.64 49.13V82.35H256.79L255.79 74.27C253.46 79.92 246.05 83.79 237.52 83.79C225.91 83.79 218.83 77 218.83 66.74ZM255.58 60.22V57.34L244.17 58.22C235.76 59 232.55 61.76 232.55 66.22C232.55 71.22 235.87 73.64 241.96 73.64C250.26 73.61 255.58 68.63 255.58 60.22Z" fill="white"/>
<path d="M280.369 8.52009C280.371 6.9054 280.851 5.32737 281.747 3.98433C282.643 2.64129 283.917 1.59317 285.407 0.971715C286.897 0.35026 288.538 0.183197 290.123 0.491525C291.708 0.799853 293.166 1.56981 294.315 2.70463C295.464 3.83944 296.251 5.28848 296.579 6.8696C296.906 8.45072 296.759 10.0934 296.156 11.5911C295.553 13.0888 294.52 14.3748 293.188 15.2874C291.856 16.1999 290.284 16.6984 288.669 16.7201C287.584 16.7333 286.507 16.531 285.5 16.1248C284.494 15.7187 283.578 15.1168 282.806 14.354C282.034 13.5912 281.421 12.6828 281.003 11.6814C280.584 10.6799 280.369 9.60539 280.369 8.52009ZM281.919 27.6701H295.419V82.3501H281.919V27.6701Z" fill="white"/>
<path d="M309.369 82.3498V27.6698H321.879L322.999 34.7598C326.429 29.2198 333.069 26.0098 340.479 26.0098C354.209 26.0098 361.289 34.5398 361.289 48.6998V82.3498H347.789V51.9098C347.789 42.7198 343.249 38.2998 336.279 38.2998C327.979 38.2998 322.879 44.0598 322.879 52.9098V82.3498H309.369Z" fill="white"/>
<path d="M462.16 35.9201C458.843 32.6388 454.77 30.2242 450.3 28.8891C445.83 27.5541 441.1 27.3396 436.527 28.2647C431.954 29.1898 427.68 31.226 424.08 34.1936C420.48 37.1613 417.666 40.9693 415.886 45.2816C414.105 49.5939 413.414 54.2781 413.872 58.9209C414.33 63.5637 415.923 68.0224 418.512 71.9039C421.1 75.7853 424.604 78.97 428.714 81.1772C432.824 83.3844 437.414 84.5462 442.08 84.5601C447.723 84.5769 453.243 82.9139 457.938 79.783C462.633 76.6521 466.29 72.1949 468.443 66.9788C470.596 61.7628 471.149 56.0239 470.03 50.4929C468.911 44.9618 466.171 39.8889 462.16 35.9201Z" fill="white"/>
<path d="M417.68 56.0001C417.682 53.8454 417.968 51.7003 418.53 49.6201C419.47 51.6201 420.82 53.3601 421.74 55.4101C422.93 58.0601 426.12 57.3301 427.53 59.6401C428.78 61.7001 427.45 64.3001 428.38 66.4601C429.06 68.0201 430.67 68.3601 431.78 69.4601C432.89 70.5601 432.88 72.1901 433.06 73.7001C433.251 75.4863 433.565 77.2571 434 79.0001C429.233 77.3265 425.103 74.2157 422.178 70.0964C419.254 65.9771 417.678 61.0521 417.67 56.0001H417.68Z" fill="#06E9EF"/>
<path d="M442.06 80.3999C440.696 80.3919 439.336 80.2782 437.99 80.0599C437.99 79.7099 437.99 79.3899 438.05 79.1699C438.4 77.1155 439.33 75.2038 440.73 73.6599C442.08 72.1699 443.92 71.1699 445.06 69.4799C445.606 68.6294 445.976 67.6777 446.148 66.6814C446.32 65.6851 446.29 64.6644 446.06 63.6799C445.38 60.8299 441.51 59.8799 439.42 58.3299C438.23 57.4399 437.16 56.0699 435.58 55.9599C434.895 55.9983 434.209 55.9715 433.53 55.8799C432.939 55.6072 432.3 55.4575 431.65 55.4399C430.33 55.6199 429.5 57.0199 428.09 56.8299C427.374 56.6302 426.722 56.2491 426.196 55.7236C425.671 55.1981 425.289 54.5458 425.09 53.8299C424.7 52.1899 426 51.6599 427.39 51.5099C427.982 51.3992 428.592 51.43 429.17 51.5999C429.91 51.8699 430.25 52.5999 430.91 52.9499C432.15 53.6299 432.4 52.5399 432.21 51.4499C431.93 49.7999 431.6 49.1399 433.06 47.9999C434.06 47.2299 434.95 46.6599 434.78 45.2599C434.69 44.4399 434.24 44.0699 434.66 43.2599C435.119 42.6121 435.721 42.0784 436.42 41.6999C437.89 40.6999 442.72 40.8099 440.75 38.1299C440.17 37.3399 439.1 35.9299 438.08 35.7399C436.81 35.4999 436.25 36.9099 435.36 37.5399C434.47 38.1699 432.67 38.9199 431.76 37.9199C430.52 36.5699 432.57 36.1299 433.02 35.1899C433.092 34.913 433.098 34.6228 433.037 34.3431C432.977 34.0633 432.851 33.8019 432.67 33.5799C433.13 33.3799 433.59 33.1999 434.07 33.0399C434.362 33.2551 434.708 33.3864 435.07 33.4199C435.92 33.4799 436.72 33.0199 437.46 33.5899C438.2 34.1599 438.86 34.9999 440 35.1999C440.522 35.3047 441.065 35.207 441.518 34.9267C441.971 34.6463 442.3 34.2042 442.44 33.6899C442.539 33.0204 442.488 32.3372 442.29 31.6899C447.035 31.7191 451.666 33.1413 455.61 35.7799C455.456 35.7325 455.295 35.7161 455.136 35.7316C454.976 35.747 454.821 35.794 454.68 35.8699C453.91 36.2299 452.82 37.1399 452.73 38.0399C452.64 38.9399 454.14 39.2099 454.86 39.2099C455.94 39.2099 457.03 38.7299 456.68 37.4899C456.572 36.9574 456.335 36.4595 455.99 36.0399C456.79 36.5914 457.555 37.1926 458.28 37.8399C457.481 38.5035 456.778 39.2741 456.19 40.1299C456.055 40.4217 455.852 40.6768 455.598 40.8735C455.344 41.0702 455.046 41.2027 454.73 41.2599C454.317 41.3075 453.918 41.4403 453.56 41.6499C452.64 42.3799 453.16 44.1199 454.03 44.6499C454.607 44.9511 455.266 45.0565 455.908 44.95C456.551 44.8436 457.141 44.5312 457.59 44.0599C458.24 43.3199 458.59 42.0599 459.79 42.0599C460.305 42.062 460.799 42.2626 461.17 42.6199C461.65 43.1199 461.55 43.6199 461.66 44.2199C461.84 45.3299 462.82 44.7199 463.41 44.1599C463.844 44.9344 464.234 45.7322 464.58 46.5499C463.93 47.4899 463.41 48.5499 461.83 47.4199C460.89 46.7599 460.31 45.7999 459.13 45.5099C458.088 45.3543 457.026 45.4156 456.01 45.6899C454.85 45.8899 453.47 45.9799 452.59 46.8599C451.71 47.7399 451.29 48.8599 450.38 49.6999C448.63 51.3499 447.89 53.1499 449.02 55.4799C449.546 56.5553 450.386 57.446 451.428 58.035C452.471 58.6241 453.667 58.8837 454.86 58.7799C457.28 58.6199 459.8 57.2199 459.73 60.7799C459.726 61.8953 459.933 63.0014 460.34 64.0399C460.614 65.0846 460.756 66.1598 460.76 67.2399C460.829 68.5304 461.03 69.8103 461.36 71.0599C459.085 73.9891 456.17 76.3597 452.839 77.9905C449.508 79.6214 445.849 80.4695 442.14 80.4699L442.06 80.3999Z" fill="#06E9EF"/>
<path d="M68.4609 21.1699C75.7898 21.1699 82.8186 24.0806 88.0018 29.262C93.1851 34.4433 96.0983 41.4711 96.1009 48.7999V77.4799C88.7704 77.4799 81.74 74.5679 76.5565 69.3844C71.373 64.2008 68.4609 57.1705 68.4609 49.8399V21.1699Z" fill="#06E9EF"/>
<path d="M119.861 27.8101V56.4901C119.858 63.8189 116.945 70.8467 111.762 76.028C106.578 81.2094 99.5496 84.1201 92.2207 84.1201V55.4501C92.2207 48.1195 95.1328 41.0891 100.316 35.9056C105.5 30.7221 112.53 27.8101 119.861 27.8101Z" fill="#FF7E1D"/>
</svg>
